<svg width="74" height="120" viewBox="0 0 74 120" fill="none" xmlns="http://www.w3.org/2000/svg">
<path d="M37.6608 0.00200136C41.8808 0.0920014 43.1008 4.692 44.6108 8.452C46.1208 12.212 55.1108 32.662 60.9308 42.982C66.7508 53.302 74.6308 66.822 73.5108 86.152C72.3808 105.482 57.3708 119.912 36.3408 119.752C17.3308 119.612 0.700805 108.652 0.0208054 84.842C-0.539195 65.132 10.3008 48.102 15.6508 37.682C18.8308 31.482 29.2408 10.732 30.3408 8.162C32.3108 3.562 33.1508 -0.0979986 37.6608 0.00200136V0.00200136Z" fill="#4EC1F5"/>
<path d="M53.6606 60.352C56.6206 60.482 63.6606 69.642 63.6606 81.192C63.6606 92.742 58.2106 101.272 52.2606 100.052C45.3606 98.642 46.4906 91.602 47.9006 85.972C49.1106 81.132 51.0006 75.412 51.4206 70.202C51.6806 66.832 50.5606 60.212 53.6606 60.352V60.352Z" fill="#B3E2FB"/>
</svg>
