<svg width="115" height="115" viewBox="0 0 115 115" fill="none" xmlns="http://www.w3.org/2000/svg">
<path d="M79.542 110.592L66.1253 96.7919C70.917 95.8335 75.3253 93.9169 79.3503 91.2335L79.542 110.592Z" fill="#FFE62E"/>
<path d="M35.4583 4.40845L48.875 18.2084C44.0833 19.1668 39.675 21.0834 35.65 23.7668L35.4583 4.40845" fill="#FFE62E"/>
<path d="M110.592 79.5417L91.234 79.35C93.9173 75.325 95.834 70.9167 96.7923 66.125L110.592 79.5417Z" fill="#FFE62E"/>
<path d="M4.40924 35.4584L23.7676 35.65C21.2759 39.675 19.3592 44.0834 18.2092 48.875L4.40924 35.4584Z" fill="#FFE62E"/>
<path d="M110.592 35.4584L96.7923 48.875C95.834 44.0834 93.9173 39.675 91.234 35.65L110.592 35.4584" fill="#FFE62E"/>
<path d="M4.40924 79.5417L18.2092 66.125C19.1676 70.9167 21.0842 75.325 23.7676 79.35L4.40924 79.5417Z" fill="#FFE62E"/>
<path d="M79.542 4.40845L79.3503 23.7668C75.3253 21.2751 70.917 19.3584 66.1253 18.2084L79.542 4.40845" fill="#FFE62E"/>
<path d="M35.4583 110.592L35.65 91.2335C39.675 93.9169 44.0833 95.8335 48.875 96.7919L35.4583 110.592Z" fill="#FFE62E"/>
<path d="M90.4671 80.5L98.1338 98.325L80.3088 90.6583C84.3338 87.7833 87.7838 84.3333 90.4671 80.5Z" fill="#FFCE31"/>
<path d="M24.5333 34.4999L16.8667 16.6749L34.5 24.3416C30.6667 27.2166 27.2167 30.6666 24.5333 34.4999Z" fill="#FFCE31"/>
<path d="M96.9833 50.4084L115 57.5001L96.9833 64.5918C97.5583 62.2918 97.75 59.9918 97.75 57.5001C97.75 55.0084 97.5583 52.7084 96.9833 50.4084Z" fill="#FFCE31"/>
<path d="M18.0166 64.5918L-6.87758e-05 57.5001L18.0166 50.4084C17.6333 52.7084 17.2499 55.2001 17.2499 57.5001C17.2499 59.9918 17.4416 62.2918 18.0166 64.5918Z" fill="#FFCE31"/>
<path d="M80.4997 24.5334L98.3247 16.8667L90.658 34.6917C87.783 30.6667 84.333 27.2167 80.4997 24.5334Z" fill="#FFCE31"/>
<path d="M34.5 90.4667L16.675 98.1333L24.3417 80.3083C27.2167 84.3333 30.6667 87.7833 34.5 90.4667Z" fill="#FFCE31"/>
<path d="M50.4085 18.0167L57.5001 0L64.5918 18.0167C62.2918 17.6333 59.8001 17.25 57.5001 17.25C55.2001 17.25 52.7085 17.4417 50.4085 18.0167Z" fill="#FFCE31"/>
<path d="M64.5918 96.9833L57.5001 115L50.4085 96.9833C52.7085 97.5583 55.0085 97.7499 57.5001 97.7499C59.9918 97.7499 62.2918 97.5583 64.5918 96.9833Z" fill="#FFCE31"/>
<path d="M57.4998 93.9167C37.3875 93.9167 21.0832 77.6124 21.0832 57.5C21.0832 37.3877 37.3875 21.0834 57.4998 21.0834C77.6122 21.0834 93.9165 37.3877 93.9165 57.5C93.9165 77.6124 77.6122 93.9167 57.4998 93.9167Z" fill="#FFCE31"/>
</svg>
